<?xml version="1.0" encoding="utf-8"?>
<!-- Generator: Adobe Illustrator 19.0.0, SVG Export Plug-In . SVG Version: 6.00 Build 0)  -->
<svg version="1.1" id="Layer_1" xmlns="http://www.w3.org/2000/svg" xmlns:xlink="http://www.w3.org/1999/xlink" x="0px" y="0px"
	 viewBox="0 0 500 500" style="enable-background:new 0 0 500 500;" xml:space="preserve">
<style type="text/css">
	.st0{fill:#FFFFFF;}
</style>
<g id="XMLID_1_">
	<path id="XMLID_2_" class="st0" d="M236.9,67.6c80.8-5.6,134.5,34,165.1,82.2c15.4,24.2,30.4,60.9,30.5,98.6
		c0.1,41-13.2,76.5-30.5,102.5c-17.8,26.8-40.8,48.9-69.6,63.4c-48.2,24.3-115.5,24.9-159.6,1.6c-49.1-26-86.9-63.1-100.9-127.5
		c-5.6-25.8-6.3-59.1,1.6-87.6c1.8-6.7,5.2-13.8,7.8-20.3c12.7-31.7,34.3-59.2,61-78.2c10.7-7.7,23.7-15.3,35.2-20.3
		C191.7,75.4,215.7,69.1,236.9,67.6z"/>
	<circle id="XMLID_3_" cx="251.9" cy="252.9" r="138.4"/>
	<path id="XMLID_4_" d="M236.9,67.6c80.8-5.6,134.5,34,165.1,82.2c15.4,24.2,30.4,60.9,30.5,98.6c0.1,41-13.2,76.5-30.5,102.5
		c-17.8,26.8-40.8,48.9-69.6,63.4c-48.2,24.3-115.5,24.9-159.6,1.6c-49.1-26-86.9-63.1-100.9-127.5c-5.6-25.8-6.3-59.1,1.6-87.6
		c1.8-6.7,5.2-13.8,7.8-20.3c12.7-31.7,34.3-59.2,61-78.2c10.7-7.7,23.7-15.3,35.2-20.3C191.7,75.4,215.7,69.1,236.9,67.6z
		 M209.5,80.9c-30,7.8-52,21.7-71.2,36.8c-27.6,21.7-45.2,52-55.6,88.4c-11.5,40.6-4.1,89.6,11.7,120.5c16.4,32,38.5,56.8,69.6,74.3
		c30.3,17,72.9,27.9,117.4,19.6c39.5-7.5,69.5-24.7,93.9-50.1c32.7-34,59-96.7,41.5-162.8c-4.7-17.7-10.8-36.1-20.3-51.6
		c-5.2-8.4-12.7-16.7-20.3-25c-28.7-31.5-75-58.6-134.6-54.8C230.2,77,220.3,78.1,209.5,80.9z"/>
	
		<rect id="XMLID_7_" x="227.1" y="338.3" transform="matrix(-0.7071 0.7071 -0.7071 -0.7071 820.3875 338.0339)" class="st0" width="226.1" height="1.2"/>
	
		<rect id="XMLID_8_" x="213" y="325.3" transform="matrix(-0.7071 0.7071 -0.7071 -0.7071 787.9249 325.4598)" class="st0" width="227.1" height="1.2"/>
	
		<rect id="XMLID_9_" x="198.9" y="312.3" transform="matrix(-0.7071 0.7071 -0.7071 -0.7071 755.4632 312.8875)" class="st0" width="228.1" height="1.2"/>
	
		<rect id="XMLID_10_" x="184.8" y="299.3" transform="matrix(-0.7071 0.7071 -0.7071 -0.7071 723.0002 300.3159)" class="st0" width="229" height="1.2"/>
	
		<rect id="XMLID_11_" x="170.7" y="286.3" transform="matrix(-0.7071 0.7071 -0.7071 -0.7071 690.5385 287.7419)" class="st0" width="230" height="1.2"/>
	
		<rect id="XMLID_12_" x="156.5" y="273.3" transform="matrix(-0.7071 0.7071 -0.7071 -0.7071 658.0763 275.1683)" class="st0" width="231" height="1.2"/>
	
		<rect id="XMLID_13_" x="142.4" y="260.3" transform="matrix(-0.7071 0.7071 -0.7071 -0.7071 625.6131 262.5976)" class="st0" width="232" height="1.2"/>
	
		<rect id="XMLID_14_" x="128.3" y="247.2" transform="matrix(-0.7071 0.7071 -0.7071 -0.7071 593.1497 250.0242)" class="st0" width="233" height="1.2"/>
	
		<rect id="XMLID_15_" x="114.2" y="234.2" transform="matrix(-0.7071 0.7071 -0.7071 -0.7071 560.6844 237.4501)" class="st0" width="234" height="1.2"/>
	
		<rect id="XMLID_16_" x="100.1" y="221.2" transform="matrix(-0.7071 0.7071 -0.7071 -0.7071 528.2251 224.8799)" class="st0" width="235" height="1.2"/>
	
		<rect id="XMLID_17_" x="85.9" y="208.2" transform="matrix(-0.7071 0.7071 -0.7071 -0.7071 495.7626 212.3078)" class="st0" width="236" height="1.2"/>
	
		<rect id="XMLID_18_" x="71.8" y="195.2" transform="matrix(-0.7071 0.7071 -0.7071 -0.7071 463.3003 199.7351)" class="st0" width="236.9" height="1.2"/>
	
		<rect id="XMLID_19_" x="57.7" y="182.2" transform="matrix(-0.7071 0.7071 -0.7071 -0.7071 430.8373 187.163)" class="st0" width="237.9" height="1.2"/>
	
		<rect id="XMLID_20_" x="43.6" y="169.2" transform="matrix(-0.7071 0.7071 -0.7071 -0.7071 398.3748 174.5909)" class="st0" width="238.9" height="1.2"/>
	
		<rect id="XMLID_21_" x="44.7" y="336.8" transform="matrix(-0.7071 -0.7071 0.7071 -0.7071 34.5978 689.1773)" class="st0" width="230.6" height="1.2"/>
	
		<rect id="XMLID_22_" x="57.9" y="323.6" transform="matrix(-0.7071 -0.7071 0.7071 -0.7071 66.8143 676.0142)" class="st0" width="231.1" height="1.2"/>
	
		<rect id="XMLID_23_" x="71" y="310.3" transform="matrix(-0.7071 -0.7071 0.7071 -0.7071 99.0327 662.8505)" class="st0" width="231.5" height="1.2"/>
	
		<rect id="XMLID_24_" x="84.2" y="297.1" transform="matrix(-0.7071 -0.7071 0.7071 -0.7071 131.2505 649.6879)" class="st0" width="232" height="1.2"/>
	
		<rect id="XMLID_25_" x="97.4" y="283.8" transform="matrix(-0.7071 -0.7071 0.7071 -0.7071 163.4678 636.5236)" class="st0" width="232.4" height="1.2"/>
	
		<rect id="XMLID_26_" x="110.5" y="270.5" transform="matrix(-0.7071 -0.7071 0.7071 -0.7071 195.6876 623.3607)" class="st0" width="232.9" height="1.2"/>
	
		<rect id="XMLID_27_" x="123.7" y="257.3" transform="matrix(-0.7071 -0.7071 0.7071 -0.7071 227.9052 610.1972)" class="st0" width="233.3" height="1.2"/>
	
		<rect id="XMLID_28_" x="136.8" y="244" transform="matrix(-0.7071 -0.7071 0.7071 -0.7071 260.1237 597.033)" class="st0" width="233.8" height="1.2"/>
	
		<rect id="XMLID_29_" x="150" y="230.8" transform="matrix(-0.7071 -0.7071 0.7071 -0.7071 292.3423 583.8696)" class="st0" width="234.2" height="1.2"/>
	
		<rect id="XMLID_30_" x="163.2" y="217.5" transform="matrix(-0.7071 -0.7071 0.7071 -0.7071 324.5605 570.7047)" class="st0" width="234.7" height="1.2"/>
	
		<rect id="XMLID_31_" x="176.3" y="204.3" transform="matrix(-0.7071 -0.7071 0.7071 -0.7071 356.7775 557.5423)" class="st0" width="235.1" height="1.2"/>
	
		<rect id="XMLID_32_" x="189.5" y="191" transform="matrix(-0.7071 -0.7071 0.7071 -0.7071 388.996 544.3777)" class="st0" width="235.5" height="1.2"/>
	
		<rect id="XMLID_33_" x="202.6" y="177.8" transform="matrix(-0.7071 -0.7071 0.7071 -0.7071 421.213 531.2151)" class="st0" width="236" height="1.2"/>
	
		<rect id="XMLID_34_" x="215.8" y="164.5" transform="matrix(-0.7071 -0.7071 0.7071 -0.7071 453.4325 518.0511)" class="st0" width="236.4" height="1.2"/>
	<path id="XMLID_35_" d="M366.8,131.8c-14.4-14.4-32.1-27.4-53.2-35.2c-21.9-8.1-46.7-15-75.9-12.5c-46.5,4-79.2,24.9-104.1,49.3
		c-17.4,17.1-30.5,38.1-39.1,62.6c-12.7,36-11.9,78.4,2.3,115c12.2,31.2,32.1,56.4,60.3,75.9c26.5,18.3,64.5,32.6,107.2,29
		c52-4.4,90.1-31.1,115-61.8c6.4-7.9,12.7-16.8,16.4-27.4c3.6-7.7,5.4-12.9,7-15.6c6.9-15.5,10.6-31.9,11.7-50.1
		C418,205.1,396.5,161.5,366.8,131.8z M351.4,301.8c-0.1,0.2-0.2,0.4-0.3,0.6c-2.6,7.4-7,13.6-11.5,19
		c-17.5,21.3-44.1,39.9-80.4,42.9c-29.9,2.5-56.4-7.4-75-20.1c-16.1-11.1-28.3-24.8-36.9-41.2c-0.5-1-5.5-12.5-5.5-13
		c-6.8-21.1-7.4-55-0.4-75.3c4.7-13.6,12.4-28.3,22.7-39.9c14.2-16.1,28.4-26.4,50.9-33.6c10.3-3.3,19.4-6.7,32.1-7
		c30.8-0.8,62.2,13,79,28.2c15.5,13.9,33.1,41.1,37.6,66.5C368.2,255,363.3,280.6,351.4,301.8z"/>
	<path id="XMLID_38_" class="st0" d="M297.9,326.9c-7.6,0-14.2-4.8-16.6-12l-8.5-25.7h-42.3l-7.9,25.5c-2.4,7.3-9.1,12.2-16.7,12.2
		c-1.8,0-3.6-0.3-5.4-0.9c-9.1-2.7-14.3-12.5-11.5-21.9l35.7-113c2.3-7.2,9.1-12.2,16.6-12.2h19c7.5,0,14.3,4.9,16.6,12l37.5,113
		c3,9.2-2,19.2-11.1,22.1C301.6,326.6,299.8,326.9,297.9,326.9z"/>
	<path id="XMLID_39_" d="M297.9,324.5c-6.8,0-12.8-4.3-14.8-10.7l-8.5-25.8l-0.4-1.3h-1.3h-42.3h-1.4l-0.4,1.3l-7.9,25.5
		c-2.1,6.5-8.1,10.9-15,10.9c-1.6,0-3.3-0.3-4.8-0.8c-8.2-2.5-12.8-11.2-10.3-19.6l35.7-113c2.1-6.4,8.2-10.9,14.8-10.9h19
		c6.7,0,12.8,4.4,14.8,10.7l37.5,113c2.7,8.3-1.8,17.2-9.9,19.8C301.2,324.2,299.6,324.5,297.9,324.5z M297.9,328.1
		c2.1,0,4.1-0.3,6.1-1c10.1-3.3,15.6-14.2,12.2-24.4l-37.5-113c-2.5-7.8-10-13.2-18.3-13.2h-19c-8.3,0-15.8,5.5-18.3,13.5l-35.7,113
		c-3.1,10.3,2.6,21.1,12.7,24.2c1.9,0.6,3.9,0.9,5.9,0.9c8.4,0,15.8-5.4,18.4-13.4l7.9-25.5l-1.7,1.3h42.3l-1.7-1.3l8.5,25.7
		C282.2,322.8,289.5,328.1,297.9,328.1z"/>
	<path id="XMLID_42_" class="st0" d="M157.8,142.9L157.8,142.9c-4.5-6.2-3.2-14.7,3.4-19.5c6.6-4.8,15-3.4,19.4,2.7l0,0.1
		c4.4,6.1,3.1,14.6-3.4,19.4C170.6,150.4,162.2,149,157.8,142.9z M174.6,130.6L174.6,130.6c-2.3-3.1-6.4-4.2-9.7-1.8
		c-3.2,2.3-3.5,6.5-1.2,9.6l0,0.1c2.2,3.1,6.4,4.1,9.6,1.8C176.6,137.9,176.9,133.7,174.6,130.6z"/>
	<path id="XMLID_45_" class="st0" d="M200.7,103l6.7-2.1l18.7,21.8l-7.4,2.4l-3.3-3.9l-9.7,3.1l-0.4,5l-7.3,2.3L200.7,103z
		 M211.7,116.3l-5.1-6.2l-0.5,8L211.7,116.3z"/>
	<path id="XMLID_48_" class="st0" d="M238.1,109.5l0.1-14.8l7.4,0l-0.1,14.6c0,3.8,1.9,5.6,4.8,5.6c2.9,0,4.9-1.7,4.9-5.4l0.1-14.8
		l7.4,0l-0.1,14.6c0,8.5-4.9,12.2-12.4,12.2C242.8,121.6,238.1,117.7,238.1,109.5z"/>
	<polygon id="XMLID_49_" class="st0" points="289.4,106.9 281.9,104.6 283.7,98.5 305.8,105.3 303.9,111.4 296.4,109.1 290.6,128.1 
		283.6,126 	"/>
	<polygon id="XMLID_50_" class="st0" points="325.5,113.8 331.5,117.8 326.1,126 333.9,131.2 339.3,123 345.4,127 330.8,148.9 
		324.8,144.9 330.3,136.6 322.5,131.4 317,139.7 310.9,135.7 	"/>
	<path id="XMLID_51_" class="st0" d="M346.9,353L346.9,353c4.7,6,3.7,14.6-2.6,19.6c-6.4,5-14.8,4-19.5-1.9l0-0.1
		c-4.7-5.9-3.7-14.5,2.7-19.5C333.8,346.1,342.2,347.1,346.9,353z M330.5,366L330.5,366c2.4,3,6.6,3.9,9.8,1.4
		c3.1-2.5,3.2-6.7,0.9-9.6l0-0.1c-2.4-3-6.6-3.9-9.7-1.4C328.3,358.8,328.2,363,330.5,366z"/>
	<path id="XMLID_54_" class="st0" d="M305.8,394.7l-6.6,2.4l-19.7-20.9l7.3-2.7l3.4,3.7l9.5-3.5l0.1-5.1l7.2-2.7L305.8,394.7z
		 M294.2,381.8l5.3,6l0.2-8L294.2,381.8z"/>
	<path id="XMLID_57_" class="st0" d="M268.1,389.7l0.7,14.7l-7.4,0.3l-0.6-14.6c-0.2-3.8-2.2-5.5-5.1-5.4c-2.9,0.1-4.8,1.9-4.6,5.6
		l0.7,14.8l-7.4,0.3l-0.6-14.6c-0.4-8.5,4.3-12.4,11.8-12.7C262.9,377.9,267.7,381.5,268.1,389.7z"/>
	<polygon id="XMLID_58_" class="st0" points="216.7,394.5 224.3,396.6 222.7,402.7 200.4,396.7 202.1,390.6 209.7,392.6 
		214.9,373.4 221.9,375.3 	"/>
	<polygon id="XMLID_59_" class="st0" points="180.7,389.2 174.5,385.4 179.5,377 171.5,372.2 166.5,380.6 160.2,376.9 173.7,354.3 
		180,358.1 174.8,366.6 182.9,371.4 188,362.9 194.2,366.6 	"/>
</g>
</svg>
