<svg xmlns="http://www.w3.org/2000/svg" viewBox="0 0 115.84 108.96"><defs><style>.cls-1{fill:black;}</style></defs><title>Muse LogoMark DarkGrey</title><g id="Layer_2" data-name="Layer 2"><g id="Layer_1-2" data-name="Layer 1"><path class="cls-1" d="M106,54.58,91.51,69a5.78,5.78,0,0,0-1.7,4.09v30.05A5.79,5.79,0,0,0,95.6,109h14.45a5.79,5.79,0,0,0,5.79-5.79V58.67A5.79,5.79,0,0,0,106,54.58Z"/><path class="cls-1" d="M115.68,26.24V5.8a5.79,5.79,0,0,0-9.89-4.09L89.65,17.85,64.26,43.24h0L22.74,1.71A5.79,5.79,0,0,0,12.85,5.8v26H5.79A5.8,5.8,0,0,0,0,37.62V51.75a5.79,5.79,0,0,0,5.79,5.79h7.06V70.4H5.79A5.79,5.79,0,0,0,0,76.19V90.31a5.8,5.8,0,0,0,5.79,5.8h7.06v7.06A5.79,5.79,0,0,0,18.64,109H33.09a5.79,5.79,0,0,0,5.79-5.79V54.66l7,7h0L60.17,76a5.79,5.79,0,0,0,8.19,0L82.67,61.64l7-7L114,30.33A5.75,5.75,0,0,0,115.68,26.24Z"/></g></g></svg>